<?xml version="1.0" standalone="no"?>
<!DOCTYPE svg PUBLIC "-//W3C//DTD SVG 20010904//EN"
 "http://www.w3.org/TR/2001/REC-SVG-20010904/DTD/svg10.dtd">
<svg version="1.0" xmlns="http://www.w3.org/2000/svg"
 width="383.000000pt" height="383.000000pt" viewBox="0 0 383.000000 383.000000"
 preserveAspectRatio="xMidYMid meet">
<metadata>
Created by potrace 1.11, written by Peter Selinger 2001-2013
</metadata>
<g transform="translate(0.000000,383.000000) scale(0.100000,-0.100000)"
fill="#000000" stroke="none">
<path d="M2630 3360 l0 -80 -160 0 -160 0 0 -80 0 -80 -160 0 -160 0 0 -80 0
-80 -80 0 -80 0 0 -80 0 -80 -80 0 -80 0 0 -160 0 -160 -80 0 -80 0 0 -240 0
-240 -80 0 -80 0 0 -80 0 -80 -160 0 -160 0 0 80 0 80 -80 0 -80 0 0 80 0 80
-80 0 -80 0 0 80 0 80 -80 0 -80 0 0 80 0 80 -80 0 -80 0 0 80 0 80 -160 0
-160 0 0 -160 0 -160 80 0 80 0 0 -80 0 -80 80 0 80 0 0 -80 0 -80 80 0 80 0
0 -80 0 -80 80 0 80 0 0 -80 0 -80 80 0 80 0 0 -80 0 -80 80 0 80 0 0 -160 0
-160 -320 0 -320 0 0 -80 0 -80 -80 0 -80 0 0 -80 0 -80 -80 0 -80 0 0 -80 0
-80 80 0 80 0 0 -80 0 -80 400 0 400 0 0 -80 0 -80 640 0 640 0 0 80 0 80 480
0 480 0 0 80 0 80 160 0 160 0 0 80 0 80 80 0 80 0 0 80 0 80 -160 0 -160 0 0
80 0 80 -80 0 -80 0 0 80 0 80 -240 0 -240 0 0 160 0 160 -80 0 -80 0 0 80 0
80 80 0 80 0 0 320 0 320 80 0 80 0 0 240 0 240 80 0 80 0 0 240 0 240 -240 0
-240 0 0 -80z"/>
</g>
</svg>
